<mxfile host="Electron" modified="2024-09-19T15:56:51.194Z" agent="Mozilla/5.0 (Windows NT 10.0; Win64; x64) AppleWebKit/537.36 (KHTML, like Gecko) draw.io/24.6.1 Chrome/124.0.6367.207 Electron/30.0.6 Safari/537.36" etag="_Imm5idBD7SiEks2P7cz" version="24.6.1" type="device">
  <diagram name="Page-1" id="t7LpS5Yb4Mtb9IzMA6DQ">
    <mxGraphModel dx="521" dy="613" grid="1" gridSize="10" guides="1" tooltips="1" connect="1" arrows="1" fold="1" page="1" pageScale="1" pageWidth="850" pageHeight="1100" math="0" shadow="0">
      <root>
        <mxCell id="0" />
        <mxCell id="1" parent="0" />
        <mxCell id="6thosCF5PeBXHgGs_PyQ-2" style="edgeStyle=orthogonalEdgeStyle;rounded=0;orthogonalLoop=1;jettySize=auto;html=1;exitX=0.75;exitY=0;exitDx=0;exitDy=0;entryX=0.75;entryY=1;entryDx=0;entryDy=0;" edge="1" parent="1" source="y3IzwqxfmLY4pDX7ddi2-2" target="y3IzwqxfmLY4pDX7ddi2-5">
          <mxGeometry relative="1" as="geometry" />
        </mxCell>
        <mxCell id="6thosCF5PeBXHgGs_PyQ-4" style="edgeStyle=orthogonalEdgeStyle;rounded=0;orthogonalLoop=1;jettySize=auto;html=1;exitX=1;exitY=0.5;exitDx=0;exitDy=0;entryX=0;entryY=0.5;entryDx=0;entryDy=0;" edge="1" parent="1" source="y3IzwqxfmLY4pDX7ddi2-2" target="y3IzwqxfmLY4pDX7ddi2-4">
          <mxGeometry relative="1" as="geometry" />
        </mxCell>
        <mxCell id="6thosCF5PeBXHgGs_PyQ-11" style="edgeStyle=orthogonalEdgeStyle;rounded=0;orthogonalLoop=1;jettySize=auto;html=1;exitX=1;exitY=0.5;exitDx=0;exitDy=0;entryX=0;entryY=0.5;entryDx=0;entryDy=0;" edge="1" parent="1" source="y3IzwqxfmLY4pDX7ddi2-2" target="6thosCF5PeBXHgGs_PyQ-10">
          <mxGeometry relative="1" as="geometry" />
        </mxCell>
        <mxCell id="6thosCF5PeBXHgGs_PyQ-13" style="edgeStyle=orthogonalEdgeStyle;rounded=0;orthogonalLoop=1;jettySize=auto;html=1;exitX=1;exitY=0.5;exitDx=0;exitDy=0;entryX=0;entryY=0.5;entryDx=0;entryDy=0;" edge="1" parent="1" source="y3IzwqxfmLY4pDX7ddi2-2" target="6thosCF5PeBXHgGs_PyQ-9">
          <mxGeometry relative="1" as="geometry" />
        </mxCell>
        <mxCell id="y3IzwqxfmLY4pDX7ddi2-2" value="ESP32" style="rounded=0;whiteSpace=wrap;html=1;fillColor=#99FF99;" parent="1" vertex="1">
          <mxGeometry x="320" y="200" width="80" height="40" as="geometry" />
        </mxCell>
        <mxCell id="y3IzwqxfmLY4pDX7ddi2-4" value="Speaker" style="rounded=0;whiteSpace=wrap;html=1;" parent="1" vertex="1">
          <mxGeometry x="440" y="200" width="80" height="40" as="geometry" />
        </mxCell>
        <mxCell id="6thosCF5PeBXHgGs_PyQ-3" style="edgeStyle=orthogonalEdgeStyle;rounded=0;orthogonalLoop=1;jettySize=auto;html=1;exitX=0.25;exitY=1;exitDx=0;exitDy=0;entryX=0.25;entryY=0;entryDx=0;entryDy=0;" edge="1" parent="1" source="y3IzwqxfmLY4pDX7ddi2-5" target="y3IzwqxfmLY4pDX7ddi2-2">
          <mxGeometry relative="1" as="geometry" />
        </mxCell>
        <mxCell id="y3IzwqxfmLY4pDX7ddi2-5" value="MicroSD card &amp;amp; Module" style="rounded=0;whiteSpace=wrap;html=1;" parent="1" vertex="1">
          <mxGeometry x="320" y="120" width="80" height="40" as="geometry" />
        </mxCell>
        <mxCell id="6thosCF5PeBXHgGs_PyQ-5" style="edgeStyle=orthogonalEdgeStyle;rounded=0;orthogonalLoop=1;jettySize=auto;html=1;exitX=0.5;exitY=0;exitDx=0;exitDy=0;entryX=0.5;entryY=1;entryDx=0;entryDy=0;" edge="1" parent="1" source="y3IzwqxfmLY4pDX7ddi2-6" target="y3IzwqxfmLY4pDX7ddi2-2">
          <mxGeometry relative="1" as="geometry" />
        </mxCell>
        <mxCell id="y3IzwqxfmLY4pDX7ddi2-6" value="Accelerometer" style="rounded=0;whiteSpace=wrap;html=1;" parent="1" vertex="1">
          <mxGeometry x="320" y="280" width="80" height="40" as="geometry" />
        </mxCell>
        <mxCell id="6thosCF5PeBXHgGs_PyQ-6" style="edgeStyle=orthogonalEdgeStyle;rounded=0;orthogonalLoop=1;jettySize=auto;html=1;entryX=0;entryY=0.5;entryDx=0;entryDy=0;" edge="1" parent="1" source="6thosCF5PeBXHgGs_PyQ-1" target="y3IzwqxfmLY4pDX7ddi2-2">
          <mxGeometry relative="1" as="geometry" />
        </mxCell>
        <mxCell id="6thosCF5PeBXHgGs_PyQ-1" value="Lithium Battery" style="rounded=0;whiteSpace=wrap;html=1;" vertex="1" parent="1">
          <mxGeometry x="200" y="200" width="80" height="40" as="geometry" />
        </mxCell>
        <mxCell id="6thosCF5PeBXHgGs_PyQ-9" value="Vibration motor" style="rounded=0;whiteSpace=wrap;html=1;" vertex="1" parent="1">
          <mxGeometry x="440" y="280" width="80" height="40" as="geometry" />
        </mxCell>
        <mxCell id="6thosCF5PeBXHgGs_PyQ-10" value="OLED screen" style="rounded=0;whiteSpace=wrap;html=1;" vertex="1" parent="1">
          <mxGeometry x="440" y="120" width="80" height="40" as="geometry" />
        </mxCell>
        <mxCell id="6thosCF5PeBXHgGs_PyQ-14" value="Armband / Wristband System Block Diagram" style="swimlane;whiteSpace=wrap;html=1;" vertex="1" parent="1">
          <mxGeometry x="180" y="80" width="360" height="260" as="geometry" />
        </mxCell>
      </root>
    </mxGraphModel>
  </diagram>
</mxfile>
